/* XPM */
static char *dolphin_16x16[] = {
/* columns rows colors chars-per-pixel */
"16 16 74 1 ",
"  c black",
". c #030303",
"X c #0B141E",
"o c #01192C",
"O c #011A2F",
"+ c #001A31",
"@ c #001D37",
"# c #132131",
"$ c #272A2B",
"% c #022848",
"& c #022A4B",
"* c #192B41",
"= c #192F42",
"- c #1A2E46",
"; c #033059",
": c #133C5D",
"> c #203754",
", c #023660",
"< c #033D6C",
"1 c #1B3E64",
"2 c #003E77",
"3 c #1D496C",
"4 c #034174",
"5 c #244060",
"6 c #274365",
"7 c #274568",
"8 c #2A496C",
"9 c #354F6D",
"0 c #2B4A70",
"q c #2C4C73",
"w c #2C4D74",
"e c #32547D",
"r c #4B5054",
"t c #4E5355",
"y c #4E5458",
"u c #50565A",
"i c #555B5F",
"p c #4D5E6F",
"a c #5D666B",
"s c #697075",
"d c #034B87",
"f c #084C84",
"g c #045192",
"h c #045497",
"j c #155C9C",
"k c #325884",
"l c #345E8F",
"z c #386294",
"x c #3B669B",
"c c #3B679C",
"v c #0462AF",
"b c #747E86",
"n c #4171AA",
"m c #4172AC",
"M c #4273AD",
"N c #4274AE",
"B c #477CBB",
"V c #056CC2",
"C c #0571CB",
"Z c #0573CE",
"A c #3384D4",
"S c #4B83C6",
"D c #4C85C8",
"F c #4189D6",
"G c #518DD5",
"H c #528ED7",
"J c #528FD8",
"K c #838D94",
"L c #848E94",
"P c #8B9497",
"I c #9BA5A9",
"U c #A5B0B4",
"Y c #BCC8CD",
"T c None",
/* pixels */
"TTTTTTTTTTTTTTTT",
"TTTTTTTT@2+TTTTT",
"TTTT*50w1;TTTTTT",
"TTXxJJJJJD7TTTTT",
"#7mJJJJJJJJlTTTT",
"-NSnzkJcHJJFvTTT",
"TT $IaH8eBJACoTT",
"TTTTT m9YPpjZ<TT",
"TTTTTTw>TtULfhTT",
"TTTTTTTTTTTsbdTT",
"TTTTTTTTTTTTL*TT",
"TTTTTTTTTTTTurTT",
"TTTTTTTTTT,gyiTT",
"TTTTTTTTTT4V3:&T",
"TTTTTTTTTTTT+4v%",
"TTTTTTTTTTTTTTTT"
};
