/* XPM */
static const char *dolphin_32x32[] = {
/* columns rows colors chars-per-pixel */
"32 32 187 2 ",
"   c #000000",
".  c #000101",
"X  c #000102",
"o  c #000203",
"O  c #020303",
"+  c #020304",
"@  c #020305",
"#  c #000306",
"$  c #020405",
"%  c #020406",
"&  c #030507",
"*  c #040405",
"=  c #050506",
"-  c #00060B",
";  c #04070B",
":  c #00070D",
">  c #00080F",
",  c #080909",
"<  c #060A10",
"1  c #070C12",
"2  c #010C15",
"3  c #080E15",
"4  c #000F1C",
"5  c #0F1316",
"6  c #061018",
"7  c #01111F",
"8  c #0F1419",
"9  c #0B131D",
"0  c #111213",
"q  c #101315",
"w  c #141516",
"e  c #151617",
"r  c #14181B",
"t  c #191B1C",
"y  c #1C1E1F",
"u  c #011221",
"i  c #001222",
"p  c #011322",
"a  c #001324",
"s  c #061727",
"d  c #0D1622",
"f  c #0D1723",
"g  c #0F1926",
"h  c #0F1B29",
"j  c #101B29",
"k  c #121F2F",
"l  c #001B34",
"z  c #011D35",
"x  c #011F37",
"c  c #001F3C",
"v  c #122031",
"b  c #142335",
"n  c #152537",
"m  c #17283C",
"M  c #18293E",
"N  c #212324",
"B  c #2E3132",
"V  c #36393B",
"C  c #022644",
"Z  c #022B4D",
"A  c #1D324C",
"S  c #002A51",
"D  c #022C50",
"F  c #022F53",
"G  c #022F54",
"H  c #02335B",
"J  c #213956",
"K  c #223A58",
"L  c #023660",
"P  c #003463",
"I  c #023763",
"U  c #033966",
"Y  c #033B6A",
"T  c #033E6F",
"R  c #034072",
"E  c #264264",
"W  c #284669",
"Q  c #2A496F",
"!  c #2B4A70",
"~  c #2C4D75",
"^  c #30537E",
"/  c #45494B",
"(  c #43484C",
")  c #525759",
"_  c #53595D",
"`  c #595F64",
"'  c #5E6467",
"]  c #656C71",
"[  c #686F72",
"{  c #6C7376",
"}  c #6B7378",
"|  c #6D757B",
" . c #034982",
".. c #034A85",
"X. c #004788",
"o. c #00488A",
"O. c #034C88",
"+. c #034D8A",
"@. c #04508F",
"#. c #045293",
"$. c #045497",
"%. c #045599",
"&. c #00529D",
"*. c #325885",
"=. c #335886",
"-. c #345B89",
";. c #355C8B",
":. c #396497",
">. c #3B669A",
",. c #3B679B",
"<. c #0055A3",
"1. c #045BA4",
"2. c #045CA5",
"3. c #045DA7",
"4. c #045EA8",
"5. c #0461AD",
"6. c #0461AE",
"7. c #0463B2",
"8. c #0464B3",
"9. c #0466B6",
"0. c #056ABD",
"q. c #3E6CA3",
"w. c #3E6DA5",
"e. c #3F6EA6",
"r. c #3F6EA7",
"t. c #3F6FA7",
"y. c #376FAD",
"u. c #737B81",
"i. c #4171AB",
"p. c #4273AD",
"a. c #4273AE",
"s. c #4274AF",
"d. c #4375B0",
"f. c #467AB8",
"g. c #056CC1",
"h. c #056CC2",
"j. c #056EC5",
"k. c #0572CC",
"l. c #0573CE",
"z. c #0C76CF",
"x. c #1C7CD1",
"c. c #497FC0",
"v. c #788187",
"b. c #7E878D",
"n. c #2A81D3",
"m. c #3585D4",
"M. c #4A80C2",
"N. c #4A81C2",
"B. c #4C84C7",
"V. c #4C84C8",
"C. c #4C85C8",
"Z. c #4D86CB",
"A. c #4D87CC",
"S. c #4E88CE",
"D. c #4489D4",
"F. c #4F8BD1",
"G. c #508CD4",
"H. c #518CD4",
"J. c #518DD6",
"K. c #518ED6",
"L. c #528FD7",
"P. c #528FD8",
"I. c #848C8F",
"U. c #879197",
"Y. c #90999C",
"T. c #90999F",
"R. c #919BA2",
"E. c #949EA6",
"W. c #9BA5A8",
"Q. c #9CA8AF",
"!. c #9FAAB2",
"~. c #A1ABAF",
"^. c #A5AFB3",
"/. c #A6B0B4",
"(. c #A5B0B9",
"). c #A9B4B8",
"_. c #A8B4BC",
"`. c #AAB6BF",
"'. c #AEB9BE",
"]. c #BDCAD4",
"[. c #C1CED8",
"{. c #C5D3DD",
"}. c #CFDCE1",
"|. c #D5E3E8",
" X c #D6E4E9",
".X c #D9E7EC",
"XX c None",
/* pixels */
"XXXXXXXXXXXXXXXXXXXXXXXXXXXXXXXXXXXXXXXXXXXXXXXXXXXXXXXXXXXXXXXX",
"XXXXXXXXXXXXXXXXXXXXXXXXXXXXXXXXXXXXXX    XXXXXXXXXXXXXXXXXXXXXX",
"XXXXXXXXXXXXXXXXXXXXXXXXXXXXXXXXXX  l L L   XXXXXXXXXXXXXXXXXXXX",
"XXXXXXXXXXXXXXXXXXXXXXXXXXXXXX  a o.<.<.c XXXXXXXXXXXXXXXXXXXXXX",
"XXXXXXXXXXXXXXXXXX    @ 3 h 9 @ u S X.&.@ XXXXXXXXXXXXXXXXXXXXXX",
"XXXXXXXXXXXXXX  b =.c.p.i.P.P.H.p.! d 4   XXXXXXXXXXXXXXXXXXXXXX",
"XXXXXXXXXX  d q.P.P.P.P.P.P.P.P.P.P.H.,.j   XXXXXXXXXXXXXXXXXXXX",
"XXXXXXXX  M S.P.P.P.P.P.P.P.P.P.P.P.P.P.H.~ % XXXXXXXXXXXXXXXXXX",
"XX      v F.P.P.P.P.P.P.P.P.P.P.P.P.P.P.P.P.t.< XXXXXXXXXXXXXXXX",
"  ^ d.Z.P.P.P.P.P.P.P.P.P.P.P.P.P.P.P.P.P.P.P.y.: XXXXXXXXXXXXXX",
"% S.P.P.P.P.P.P.P.P.B.N.P.P.P.s.P.P.P.P.P.P.P.m.1.XXXXXXXXXXXXXX",
"XX9 E t.N.t.;.Q J A k K P.P.P.1 H.P.P.P.P.P.P.n.l.3.XXXXXXXXXXXX",
"XXXXXX      t { Y.W.I.g P.P.H.; A.P.P.P.P.P.P.x.l.h.> XXXXXXXXXX",
"XXXXXXXXXXXX  , [ .X}.e Z.P.Z., q m ^ c.P.P.P.z.l.l.L XXXXXXXXXX",
"XXXXXXXXXXXXXXXXXXXX  = ,.P.f.B |.~.' y k -.D.l.l.l.7.  XXXXXXXX",
"XXXXXXXXXXXXXXXXXXXXXX  W P.t.N ^. X.X.X)./ s 4.l.l.l.u XXXXXXXX",
"XXXXXXXXXXXXXXXXXXXXXXXXn P.:.    0 ) /..X.XY.8 @.l.l.Z XXXXXXXX",
"XXXXXXXXXXXXXXXXXXXXXXXX% p.=.  XXXXXX  V '.{._.r %.l.T XXXXXXXX",
"XXXXXXXXXXXXXXXXXXXXXXXXXX    XXXXXXXXXXXX= } {.!.6 0. .  XXXXXX",
"XXXXXXXXXXXXXXXXXXXXXXXXXXXXXXXXXXXXXXXXXXXX  ` {.] G +.  XXXXXX",
"XXXXXXXXXXXXXXXXXXXXXXXXXXXXXXXXXXXXXXXXXXXXXX  b.].5 R   XXXXXX",
"XXXXXXXXXXXXXXXXXXXXXXXXXXXXXXXXXXXXXXXXXXXXXXXXe [._ u   XXXXXX",
"XXXXXXXXXXXXXXXXXXXXXXXXXXXXXXXXXXXXXXXXXXXXXXXX  R.U.  XXXXXXXX",
"XXXXXXXXXXXXXXXXXXXXXXXXXXXXXXXXXXXXXXXXXXXXXXXX  u.(.  XXXXXXXX",
"XXXXXXXXXXXXXXXXXXXXXXXXXXXXXXXXXXXXXXXX>   XXXX  v._.  XXXXXXXX",
"XXXXXXXXXXXXXXXXXXXXXXXXXXXXXXXXXXXXXX  6.9.l.U   Q.E.  XXXXXXXX",
"XXXXXXXXXXXXXXXXXXXXXXXXXXXXXXXXXXXXXX  ..l.l.l.x | (     XXXXXX",
"XXXXXXXXXXXXXXXXXXXXXXXXXXXXXXXXXXXXXXXX- Y 3.j.8.Z L h.#.F 2   ",
"XXXXXXXXXXXXXXXXXXXXXXXXXXXXXXXXXXXXXXXXXX      7 H 6.l.l.l.h.  ",
"XXXXXXXXXXXXXXXXXXXXXXXXXXXXXXXXXXXXXXXXXXXXXXXXXXXX  C +.$.x   ",
"XXXXXXXXXXXXXXXXXXXXXXXXXXXXXXXXXXXXXXXXXXXXXXXXXXXXXXXX    XXXX",
"XXXXXXXXXXXXXXXXXXXXXXXXXXXXXXXXXXXXXXXXXXXXXXXXXXXXXXXXXXXXXXXX"
};
