/* XPM */
static const char *wall_32x32[] = {
/* columns rows colors chars-per-pixel */
"32 32 81 1 ",
"  c #000000",
". c #070303",
"X c #080403",
"o c #0B0504",
"O c #0E0605",
"+ c #110806",
"@ c #1E0B09",
"# c #1E0B0A",
"$ c #210C0A",
"% c #240E0B",
"& c #270F0C",
"* c #280F0D",
"= c #2A100D",
"- c #391311",
"; c #3C1713",
": c #3E1814",
"> c #421915",
", c #4F1E19",
"< c #501E19",
"1 c #561D1A",
"2 c #4D221B",
"3 c #5A221C",
"4 c #5C231D",
"5 c #51281F",
"6 c #60241E",
"7 c #592B22",
"8 c #5C2920",
"9 c #682721",
"0 c #692821",
"q c #6C2922",
"w c #633026",
"e c #653126",
"r c #713228",
"t c #78352A",
"y c #7B372C",
"u c #783A2D",
"i c #7B3C2F",
"p c #7F3E30",
"a c #86332A",
"s c #8F362D",
"d c #8A3D31",
"f c #8C3E31",
"g c #973D32",
"h c #9C3B31",
"j c #A03D32",
"k c #834032",
"l c #8C4033",
"z c #944234",
"x c #924737",
"c c #934738",
"v c #944838",
"b c #9E4C3C",
"n c #AF4237",
"m c #A04E3D",
"M c #AA4B3C",
"N c #AB4C3C",
"B c #AC4C3D",
"V c #B04338",
"C c #BB473B",
"Z c #B74A3D",
"A c #B04E3E",
"S c #B35543",
"D c #B45744",
"F c #B65845",
"G c #BA5A47",
"H c #C25645",
"J c #CA5A47",
"K c #CB5A48",
"L c #CC5A48",
"P c #CF5E4A",
"I c #CD634E",
"U c #D4654F",
"Y c #DD624E",
"T c #D56650",
"R c #D76851",
"E c #D86952",
"W c #DC6B53",
"Q c #E16651",
"! c #E76E56",
"~ c #E67057",
"^ c #EB7259",
/* pixels */
" OOOOOXq=oOOOOOOOOOOOOO=q.OOOOO ",
"OYYQ^^k9&HYY^^^^^^^^^^I&9yYY!^^O",
"+YYQ^^k9&HYY^^^^^^^^^^I&9yYY!^^O",
"HYYQ^^k9&HYY^^^^^^^^^^I&9yYY!^^O",
"8YYQ^^k9&HYY^^^^^^^^^^I&9yYY!^^O",
"OYYQ^^k9&HYY^^^^^^^^^^I&9yYY!^^O",
"Xddlcc5q=tddccccccccccp=q2ddxccX",
"1111334Ch33333333333333hC6333334",
"@@@@@@@@@@@@@@$ss$@@@@@@@@@@@@@$",
"OJLPRRRRRRRRRRx,,dKKTRRRRRRREERO",
"OYYQ^^^^^^^^^^m,,zYY^^^^^^^^^^^O",
"OYYQ^^^^^^^^^^m,,zYY^^^^^^^^^^^O",
"OYYQ^^^^^^^^^^m,,zYY^^^^^^^^^^^O",
"OYYQ^^^^^^^^^^m,,zYY^^^^^^^^^^^O",
"oMBBFFDDFFFFFFi<<rNBDFDDDFFFFFFo",
"----;;;;;;;;;;:jj:;;;;;;;;;;;;;;",
"----;;>na;;;;;;;;;;Zg;;an>;;;;;;",
"oNNBFFe0*zBBFDFFFFF~WFb*08NNSFFo",
"OYYQ^^k9&HYY^^^^^^^^^^I&9yYY!^^O",
"OYYQ^^k9&HYY^^^^^^^^^^I&9yYY!^^O",
"OYYQ^^k9&HYY^^^^^^^^^^I&9yYY!^^O",
"OYYQ^^k9&HYY^^^^^^^^^^I&9yYY!^^O",
"OKKPEEu9&AKKRRRRRRREEEG*9rKKUEEO",
"@@@@@@%jq@@@@@@@@@@@@@@qj%@@@@@$",
"111133333333334VV433333333333334",
"Xddlcxxxxxcvvvw<<8ffxcxxxxxxcccX",
"OYYQ^^^^^^^^^^m,,zYY^^^^^^^^^^^O",
"OYYQ^^^^^^^^^^m,,zYY^^^^^^^^^^^O",
"OYYQ^^^^^^^^^^m,,zYY^^^^^^^^^^^O",
"OYYQ^^^^^^^^^^m,,zYY^^^^^^^^^^^O",
"OYYQ^^^^^^^^^^m,,zYY^^^^^^^^^^^O",
" O+K7OOOOOOOO+X<<XOOOOOOOOOOOOO "
};
