/* XPM */
static char *wall_16x16[] = {
/* columns rows colors chars-per-pixel */
"16 16 40 1 ",
"  c #421D17",
". c #471E18",
"X c #4B1E19",
"o c #4F1F1A",
"O c #46221B",
"+ c #4C231C",
"@ c #4D231C",
"# c #54221C",
"$ c #50241C",
"% c #56251E",
"& c #59251E",
"* c #602720",
"= c #642A22",
"- c #682922",
"; c #692B23",
": c #6E2B24",
"> c #6A2C24",
", c #702D25",
"< c #702E26",
"1 c #762F27",
"2 c #723027",
"3 c #743128",
"4 c #743328",
"5 c #753329",
"6 c #76352A",
"7 c #78372B",
"8 c #78372C",
"9 c #79372C",
"0 c #7B3A2E",
"q c #7C3C2F",
"w c #7D3D2F",
"e c #8C3E31",
"r c #924737",
"t c #994537",
"y c #A04739",
"u c #A44A3B",
"i c #DD624E",
"p c #DF644F",
"a c #E97058",
"s c #EB7259",
/* pixels */
" 6w%X6wwwqw+#6wO",
"yps65isssss0<iaw",
"eps55isssss0<iaw",
"o<61=266666=1<6%",
".500000=*600000+",
"6psssss82iassssw",
"6psssss62iassssw",
"X276606>-578787+",
"@27:*3707ut=:36$",
"3ps53isssss0<iaw",
"6ps73psssss02iaw",
"X30-&370000&=50+",
"@:05666<:<66666%",
"2psssss72iasassw",
"5psssss62passssw",
" urwwww#@6wwwwwO"
};
