/* XPM */
static char *coin[] = {
/* columns rows colors chars-per-pixel */
"192 16 5 1 ",
"  c #1B1B1B",
". c #F2741B",
"X c #FBC41B",
"o c #FFF21B",
"O c None",
/* pixels */
"OOOOOOOOOOOOOOOOOOOOOOOOOOOOOOOOOOOOOOOOOOOOOOOOOOOOOOOOOOOOOOOOOOOOOOOOOOOOOOOOOOOOOOOOOOOOOOOOOOOOOOOOOOOOOOOOOOOOOOOOOOOOOOOOOOOOOOOOOOOOOOOOOOOOOOOOOOOOOOOOOOOOOOOOOOOOOOOOOOOOOOOOOOOOOOOO",
"OOOOOOOOOOOOOOOOOOOOOOOOOOOOOOOOOOOOOOOOOOOOOOOOOOOOOOOOOOOOOOOOOOOOOOOOOOOOOOOOOOOOOOOOOOOOOOOOOOOOOOOOOOOOOOOOOOOOOOOOOOOOOOOOOOOOOOOOOOOOOOOOOOOOOOOOOOOOOOOOOOOOOOOOOOOOOOOOOOOOOOOOOOOOOOOO",
"OOOOOOOOOOOOOOOOOOOOOOOOOOOOOOOOOOOOOOOOOOOOOOOOOOOOOOOOOOOOOOOOOOOOOOOOOOOOOOOOOOOOOOOOOOOOOOOOOOOOOOOOOOOOOOOOOOOOOOOOOOOOOOOOOOOOOOOOOOOOOOOOOOOOOOOOOOOOOOOOOOOOOOOOOOOOOOOOOOOOOOOOOOOOOOOO",
"OOOOO      OOOOOOOOOOO    OOOOOOOOOOOO    OOOOOOOOOOOOO  OOOOOOOOOOOOO    OOOOOOOOOOOO    OOOOOOOOOOO      OOOOOOOOOOO    OOOOOOOOOOOO    OOOOOOOOOOOOO  OOOOOOOOOOOOO    OOOOOOOOOOOO    OOOOOO",
"OOOO oooooo OOOOOOOOO oooo OOOOOOOOOO oooo OOOOOOOOOOO oo OOOOOOOOOOO oooo OOOOOOOOOO oooo OOOOOOOOO oooooo OOOOOOOOO oooo OOOOOOOOOO oooo OOOOOOOOOOO oo OOOOOOOOOOO oooo OOOOOOOOOO oooo OOOOO",
"OOO ooXXXXX. OOOOOOO ooXXX. OOOOOOOOO ooX. OOOOOOOOOOO o. OOOOOOOOOOO .Xoo OOOOOOOOO .XXXoo OOOOOOO .XXXXXoo OOOOOOO .XXXoo OOOOOOOOO .Xoo OOOOOOOOOOO .o OOOOOOOOOOO ooX. OOOOOOOOO ooXXX. OOOO",
"OOO oXXooXX. OOOOOOO oXXoX. OOOOOOOOO oXX. OOOOOOOOOOO o. OOOOOOOOOOO .XXo OOOOOOOOO .XoXXo OOOOOOO .XXooXXo OOOOOOO .XoXXo OOOOOOOOO .XXo OOOOOOOOOOO .o OOOOOOOOOOO oXX. OOOOOOOOO oXXoX. OOOO",
"OOO oXoXX.X. OOOOOOO oXo.X. OOOOOOOOO oo.. OOOOOOOOOOO o. OOOOOOOOOOO ..oo OOOOOOOOO .X.oXo OOOOOOO .X.XXoXo OOOOOOO .X.oXo OOOOOOOOO ..oo OOOOOOOOOOO .o OOOOOOOOOOO oo.. OOOOOOOOO oXo.X. OOOO",
"OOO oXoXX.X. OOOOOOO oXo.X. OOOOOOOOO oo.. OOOOOOOOOOO o. OOOOOOOOOOO ..oo OOOOOOOOO .X.oXo OOOOOOO .X.XXoXo OOOOOOO .X.oXo OOOOOOOOO ..oo OOOOOOOOOOO .o OOOOOOOOOOO oo.. OOOOOOOOO oXo.X. OOOO",
"OOO oXX..XX. OOOOOOO oX.XX. OOOOOOOOO oXX. OOOOOOOOOOO o. OOOOOOOOOOO .XXo OOOOOOOOO .XX.Xo OOOOOOO .XX..XXo OOOOOOO .XX.Xo OOOOOOOOO .XXo OOOOOOOOOOO .o OOOOOOOOOOO oXX. OOOOOOOOO oX.XX. OOOO",
"OOO oXXXXX.. OOOOOOO oXXX.. OOOOOOOOO oX.. OOOOOOOOOOO o. OOOOOOOOOOO ..Xo OOOOOOOOO ..XXXo OOOOOOO ..XXXXXo OOOOOOO ..XXXo OOOOOOOOO ..Xo OOOOOOOOOOO .o OOOOOOOOOOO oX.. OOOOOOOOO oXXX.. OOOO",
"OOOO ...... OOOOOOOOO .... OOOOOOOOOO .... OOOOOOOOOOO .. OOOOOOOOOOO .... OOOOOOOOOO .... OOOOOOOOO ...... OOOOOOOOO .... OOOOOOOOOO .... OOOOOOOOOOO .. OOOOOOOOOOO .... OOOOOOOOOO .... OOOOO",
"OOOOO      OOOOOOOOOOO    OOOOOOOOOOOO    OOOOOOOOOOOOO  OOOOOOOOOOOOO    OOOOOOOOOOOO    OOOOOOOOOOO      OOOOOOOOOOO    OOOOOOOOOOOO    OOOOOOOOOOOOO  OOOOOOOOOOOOO    OOOOOOOOOOOO    OOOOOO",
"OOOOOOOOOOOOOOOOOOOOOOOOOOOOOOOOOOOOOOOOOOOOOOOOOOOOOOOOOOOOOOOOOOOOOOOOOOOOOOOOOOOOOOOOOOOOOOOOOOOOOOOOOOOOOOOOOOOOOOOOOOOOOOOOOOOOOOOOOOOOOOOOOOOOOOOOOOOOOOOOOOOOOOOOOOOOOOOOOOOOOOOOOOOOOOOO",
"OOOOOOOOOOOOOOOOOOOOOOOOOOOOOOOOOOOOOOOOOOOOOOOOOOOOOOOOOOOOOOOOOOOOOOOOOOOOOOOOOOOOOOOOOOOOOOOOOOOOOOOOOOOOOOOOOOOOOOOOOOOOOOOOOOOOOOOOOOOOOOOOOOOOOOOOOOOOOOOOOOOOOOOOOOOOOOOOOOOOOOOOOOOOOOOO",
"OOOOOOOOOOOOOOOOOOOOOOOOOOOOOOOOOOOOOOOOOOOOOOOOOOOOOOOOOOOOOOOOOOOOOOOOOOOOOOOOOOOOOOOOOOOOOOOOOOOOOOOOOOOOOOOOOOOOOOOOOOOOOOOOOOOOOOOOOOOOOOOOOOOOOOOOOOOOOOOOOOOOOOOOOOOOOOOOOOOOOOOOOOOOOOOO"
};
