/* XPM */
static const char *dolphin_64x64[] = {
/* columns rows colors chars-per-pixel */
"64 64 147 2 ",
"   c #000000",
".  c #01060B",
"X  c #06090C",
"o  c #0A0A0B",
"O  c #040B13",
"+  c #080E15",
"@  c #000D19",
"#  c #0F1011",
"$  c #01111E",
"%  c #0A121B",
"&  c #121314",
"*  c #17191A",
"=  c #1A1C1D",
"-  c #011423",
";  c #01172A",
":  c #01182B",
">  c #101D2B",
",  c #011C33",
"<  c #011F38",
"1  c #1F2122",
"2  c #01223D",
"3  c #132233",
"4  c #16283D",
"5  c #202223",
"6  c #272A2C",
"7  c #2D3031",
"8  c #333637",
"9  c #323639",
"0  c #36393C",
"q  c #012543",
"w  c #022847",
"e  c #00274A",
"r  c #012A4C",
"t  c #1A2E45",
"y  c #1D334D",
"u  c #002B52",
"i  c #023055",
"p  c #02345E",
"a  c #1F3652",
"s  c #3A3E41",
"d  c #213956",
"f  c #243E5E",
"g  c #023662",
"h  c #033C6C",
"j  c #3D4143",
"k  c #034174",
"l  c #00427E",
"z  c #264365",
"x  c #274568",
"c  c #284568",
"v  c #2A496E",
"b  c #2C4C73",
"n  c #2F527C",
"m  c #30547F",
"M  c #404446",
"N  c #414648",
"B  c #484C4E",
"V  c #454A4D",
"C  c #4A4F51",
"Z  c #4C5154",
"A  c #505557",
"S  c #51565A",
"D  c #53585C",
"F  c #595F61",
"G  c #5C6265",
"H  c #5D6469",
"J  c #60666B",
"K  c #636A6C",
"L  c #747C7E",
"P  c #004685",
"I  c #034A85",
"U  c #0E4E86",
"Y  c #024B8B",
"T  c #004E95",
"R  c #045294",
"E  c #03549A",
"W  c #315682",
"Q  c #335986",
"!  c #355D8C",
"~  c #375F90",
"^  c #376092",
"/  c #396396",
"(  c #3A6598",
")  c #3C699E",
"_  c #0055A3",
"`  c #0459A0",
"'  c #055FAA",
"]  c #0461AE",
"[  c #0464B3",
"{  c #0467B8",
"}  c #056ABE",
"|  c #3E6CA3",
" . c #757D82",
".. c #406FA8",
"X. c #4172AC",
"o. c #4374B0",
"O. c #4578B6",
"+. c #477BBA",
"@. c #487DBD",
"#. c #056DC4",
"$. c #056FC8",
"%. c #0573CE",
"&. c #0A75CF",
"*. c #1478D0",
"=. c #1D7CD1",
"-. c #257BCB",
";. c #497FC0",
":. c #7B848A",
">. c #2D82D3",
",. c #3B87D5",
"<. c #4B83C6",
"1. c #4C85C9",
"2. c #4E89CE",
"3. c #438AD6",
"4. c #4D8BD3",
"5. c #518DD5",
"6. c #528FD8",
"7. c #81898C",
"8. c #868F96",
"9. c #8A9397",
"0. c #879198",
"q. c #8B969D",
"w. c #929B9F",
"e. c #919BA3",
"r. c #9FAAAF",
"t. c #9BA5A9",
"y. c #A3AEB2",
"u. c #A5B0B4",
"i. c #A5B0B9",
"p. c #AFBBC4",
"a. c #B4BFC4",
"s. c #B5C1C5",
"d. c #B3C0C9",
"f. c #B9C5CC",
"g. c #BECACF",
"h. c #BAC7D0",
"j. c #BDCAD2",
"k. c #C4D1D6",
"l. c #C5D3DD",
"z. c #CAD7DB",
"x. c #CCDAE1",
"c. c #D0DDE2",
"v. c #D3E1E6",
"b. c #D7E5EB",
"n. c #D9E7EC",
"m. c None",
"M. c black",
/* pixels */
"M.M.M.M.M.M.M.M.M.M.M.M.M.M.M.M.M.M.M.M.M.M.M.M.M.M.M.M.M.M.M.M.M.M.M.M.M.M.M.M.M.M.M.M.M.M.M.M.M.M.M.M.M.M.M.M.M.M.M.M.M.M.M.M.",
"M.M.M.M.M.M.M.M.M.M.M.M.M.M.M.M.M.M.M.M.M.M.M.M.M.M.M.M.M.M.M.M.M.M.M.M.M.M.M.M.M.M.M.M.M.M.M.M.M.M.M.M.M.M.M.M.M.M.M.M.M.M.M.M.",
"M.M.M.M.M.M.M.M.M.M.M.M.M.M.M.M.M.M.M.M.M.M.M.M.M.M.M.M.M.M.M.M.M.M.M.M.M.M.M.M.M.M.M.M.M.M.M.M.M.M.M.M.M.M.M.M.M.M.M.M.M.M.M.M.",
"M.M.M.M.M.M.M.M.M.M.M.M.M.M.M.M.M.M.M.M.M.M.M.M.M.M.M.M.M.M.M.M.M.M.M.M.M.            M.M.M.M.M.M.M.M.M.M.M.M.M.M.M.M.M.M.M.M.M.",
"M.M.M.M.M.M.M.M.M.M.M.M.M.M.M.M.M.M.M.M.M.M.M.M.M.M.M.M.M.M.M.M.M.M.        O , r r     M.M.M.M.M.M.M.M.M.M.M.M.M.M.M.M.M.M.M.M.",
"M.M.M.M.M.M.M.M.M.M.M.M.M.M.M.M.M.M.M.M.M.M.M.M.M.M.M.M.M.M.M.M.M.    . e P _ _ _ u     M.M.M.M.M.M.M.M.M.M.M.M.M.M.M.M.M.M.M.M.",
"M.M.M.M.M.M.M.M.M.M.M.M.M.M.M.M.M.M.M.M.M.M.M.M.M.M.M.M.M.M.M.      e E _ _ _ _ T .   M.M.M.M.M.M.M.M.M.M.M.M.M.M.M.M.M.M.M.M.M.",
"M.M.M.M.M.M.M.M.M.M.M.M.M.M.M.M.M.M.M.M.M.M.M.M.M.M.M.M.M.M.    O l _ _ _ _ _ _ u     M.M.M.M.M.M.M.M.M.M.M.M.M.M.M.M.M.M.M.M.M.",
"M.M.M.M.M.M.M.M.M.M.M.M.M.M.M.M.M.M.M.M.                        ; p Y _ _ _ _ _ @   M.M.M.M.M.M.M.M.M.M.M.M.M.M.M.M.M.M.M.M.M.M.",
"M.M.M.M.M.M.M.M.M.M.M.M.M.M.M.M.M.          X   . y a a t 3 +         @ r Y _ Y     M.M.M.M.M.M.M.M.M.M.M.M.M.M.M.M.M.M.M.M.M.M.",
"M.M.M.M.M.M.M.M.M.M.M.M.M.M.M.      + d ~ ;.6.3 > 6.6.6.6.6.6.1.) c >       : q     M.M.M.M.M.M.M.M.M.M.M.M.M.M.M.M.M.M.M.M.M.M.",
"M.M.M.M.M.M.M.M.M.M.M.M.M.      4 ( 6.6.6.6.6.6.6.6.6.6.6.6.6.6.6.6.6.@.b %       M.M.M.M.M.M.M.M.M.M.M.M.M.M.M.M.M.M.M.M.M.M.M.",
"M.M.M.M.M.M.M.M.M.M.M.M.    3 X.6.6.6.6.6.6.6.6.6.6.6.6.6.6.6.6.6.6.6.6.6.6.^ >       M.M.M.M.M.M.M.M.M.M.M.M.M.M.M.M.M.M.M.M.M.",
"M.M.M.M.M.M.M.M.M.M.    . m 6.6.6.6.6.6.6.6.6.6.6.6.6.6.6.6.6.6.6.6.6.6.6.6.6.6.! %     M.M.M.M.M.M.M.M.M.M.M.M.M.M.M.M.M.M.M.M.",
"M.M.M.M.M.M.M.M.M.    % o.6.6.6.6.6.6.6.6.6.6.6.6.6.6.6.6.6.6.6.6.6.6.6.6.6.6.6.6.2.f       M.M.M.M.M.M.M.M.M.M.M.M.M.M.M.M.M.M.",
"M.M.M.M.M.M.M.M.    % ;.6.6.6.6.6.6.6.6.6.6.6.6.6.6.6.6.6.6.6.6.6.6.6.6.6.6.6.6.6.6.6.) +     M.M.M.M.M.M.M.M.M.M.M.M.M.M.M.M.M.",
"M.M.M.M.M.        + @.6.6.6.6.6.6.6.6.6.6.6.6.6.6.6.6.6.6.6.6.6.6.6.6.6.6.6.6.6.6.6.6.6.;.>     M.M.M.M.M.M.M.M.M.M.M.M.M.M.M.M.",
"M.              o | 6.6.6.6.6.6.6.6.6.6.6.6.6.6.6.6.6.6.6.6.6.6.6.6.6.6.6.6.6.6.6.6.6.6.6.2.4     M.M.M.M.M.M.M.M.M.M.M.M.M.M.M.",
"M.  O f n / X.<.6.6.6.6.6.6.6.6.6.6.6.6.6.6.6.6.6.6.6.6.6.6.6.6.6.6.6.6.6.6.6.6.6.6.6.6.6.6.5.4     M.M.M.M.M.M.M.M.M.M.M.M.M.M.",
"    o.6.6.6.6.6.6.6.6.6.6.6.6.6.6.6.6.6.6.6.6.6.6.6.6.6.6.6.6.6.6.6.6.6.6.6.6.6.6.6.6.6.6.6.6.-.,     M.M.M.M.M.M.M.M.M.M.M.M.M.",
"  + 6.6.6.6.6.6.6.6.6.6.6.6.6.6.6.6.6.6.6.6.6.6.6.6.6.6.6.6.6.6.6.6.6.6.6.6.6.6.6.6.6.6.6.6.6.=.} , , M.M.M.M.M.M.M.M.M.M.M.M.M.",
"    X.6.6.6.6.6.6.6.6.6.6.6.6.6.6.6.6.6.6./ W 6.6.6.6.6.6.6.( b 6.6.6.6.6.6.6.6.6.6.6.6.6.6.6.*.%.%.%.M.M.M.M.M.M.M.M.M.M.M.M.M.",
"M.  X z | 6.6.6.6.6.6.6.6.6.6.2.O.| ( ( | %   1.6.6.6.6.6.6.>   1.6.6.6.6.6.6.6.6.6.6.6.6.6.6.&.%.%.%.' M.M.M.M.M.M.M.M.M.M.M.M.",
"M.        O a / +.) W x y > O                 ( 6.6.6.6.6.6.%   6.6.6.6.6.6.6.6.6.6.6.6.6.6.4.%.%.%.%.r   M.M.M.M.M.M.M.M.M.M.M.",
"M.M.M.M.                    . 1 s S G G D 7   z 6.6.6.6.6.6.. O 6.6.6.6.6.6.6.6.6.6.6.6.6.6.,.%.%.%.%.E     M.M.M.M.M.M.M.M.M.M.",
"M.M.M.M.M.M.M.          o G a.n.n.n.n.n.n.s.  3 6.6.6.6.6.4.  O X.6.6.6.6.6.6.6.6.6.6.6.6.6.>.%.%.%.%.%.2   M.M.M.M.M.M.M.M.M.M.",
"M.M.M.M.M.M.M.M.M.M.          5 K z.n.n.n.b.# . 5.6.6.6.6.;.      + d ( 4.6.6.6.6.6.6.6.6.6.=.%.%.%.%.%.E     M.M.M.M.M.M.M.M.M.",
"M.M.M.M.M.M.M.M.M.M.M.M.M.M.       .n.n.f.c.M   ..6.6.6.6.o.  5 0 .     . t Q 1.6.6.6.6.6.6.&.%.%.%.%.%.%.-   M.M.M.M.M.M.M.M.M.",
"M.M.M.M.M.M.M.M.M.M.M.M.M.M.M.M.M.M.M.9.  o &   b 6.6.6.6.)   D n.z.9.B o       3 Q 2.6.6.3.%.%.%.%.%.%.%.k     M.M.M.M.M.M.M.M.",
"M.M.M.M.M.M.M.M.M.M.M.M.M.M.M.M.M.M.M.M.        t 6.6.6.6.!   K n.n.n.n.v.t.F *     O v 2.>.%.%.%.%.%.%.%.{     M.M.M.M.M.M.M.M.",
"M.M.M.M.M.M.M.M.M.M.M.M.M.M.M.M.M.M.M.M.M.M.M.  O 6.6.6.6.m   L n.n.n.n.n.n.n.b.u.Z .   + U %.%.%.%.%.%.%.%.;   M.M.M.M.M.M.M.M.",
"M.M.M.M.M.M.M.M.M.M.M.M.M.M.M.M.M.M.M.M.M.M.M.    +.6.6.6.v   & A w.x.n.n.n.n.n.n.n.g.A     q #.%.%.%.%.%.%.p   M.M.M.M.M.M.M.M.",
"M.M.M.M.M.M.M.M.M.M.M.M.M.M.M.M.M.M.M.M.M.M.M.    Q 6.6.6.f         . j 7.k.n.n.n.n.n.n.r.=   $ [ %.%.%.%.%.Y     M.M.M.M.M.M.M.",
"M.M.M.M.M.M.M.M.M.M.M.M.M.M.M.M.M.M.M.M.M.M.M.M.  d 6.6.6.y   M.M.          N y.n.n.n.n.x.h.j   O ' %.%.%.%.[     M.M.M.M.M.M.M.",
"M.M.M.M.M.M.M.M.M.M.M.M.M.M.M.M.M.M.M.M.M.M.M.M.  % 6.6.6.4   M.M.M.M.M.        8 y.n.b.l.l.l.D   O [ %.%.%.%.    M.M.M.M.M.M.M.",
"M.M.M.M.M.M.M.M.M.M.M.M.M.M.M.M.M.M.M.M.M.M.M.M.    y +.6.>   M.M.M.M.M.M.M.M.      C h.l.l.l.l.S   - #.%.%.%.$   M.M.M.M.M.M.M.",
"M.M.M.M.M.M.M.M.M.M.M.M.M.M.M.M.M.M.M.M.M.M.M.M.M.            M.M.M.M.M.M.M.M.M.M.    # 0.l.l.l.l.s   w %.%.%.,   M.M.M.M.M.M.M.",
"M.M.M.M.M.M.M.M.M.M.M.M.M.M.M.M.M.M.M.M.M.M.M.M.M.M.        M.M.M.M.M.M.M.M.M.M.M.M.      H l.l.l.f.*   I %.%.2   M.M.M.M.M.M.M.",
"M.M.M.M.M.M.M.M.M.M.M.M.M.M.M.M.M.M.M.M.M.M.M.M.M.M.M.M.M.M.M.M.M.M.M.M.M.M.M.M.M.M.M.M.    Z l.l.l.e.  @ $.%.q   M.M.M.M.M.M.M.",
"M.M.M.M.M.M.M.M.M.M.M.M.M.M.M.M.M.M.M.M.M.M.M.M.M.M.M.M.M.M.M.M.M.M.M.M.M.M.M.M.M.M.M.M.M.    D l.l.l.M   k %.q   M.M.M.M.M.M.M.",
"M.M.M.M.M.M.M.M.M.M.M.M.M.M.M.M.M.M.M.M.M.M.M.M.M.M.M.M.M.M.M.M.M.M.M.M.M.M.M.M.M.M.M.M.M.M.    :.l.l.i.  @ %.2   M.M.M.M.M.M.M.",
"M.M.M.M.M.M.M.M.M.M.M.M.M.M.M.M.M.M.M.M.M.M.M.M.M.M.M.M.M.M.M.M.M.M.M.M.M.M.M.M.M.M.M.M.M.M.M.  o p.l.l.s   Y ,   M.M.M.M.M.M.M.",
"M.M.M.M.M.M.M.M.M.M.M.M.M.M.M.M.M.M.M.M.M.M.M.M.M.M.M.M.M.M.M.M.M.M.M.M.M.M.M.M.M.M.M.M.M.M.M.    Z l.l.8.  w -   M.M.M.M.M.M.M.",
"M.M.M.M.M.M.M.M.M.M.M.M.M.M.M.M.M.M.M.M.M.M.M.M.M.M.M.M.M.M.M.M.M.M.M.M.M.M.M.M.M.M.M.M.M.M.M.M.  . d.l.j.o . .   M.M.M.M.M.M.M.",
"M.M.M.M.M.M.M.M.M.M.M.M.M.M.M.M.M.M.M.M.M.M.M.M.M.M.M.M.M.M.M.M.M.M.M.M.M.M.M.M.M.M.M.M.M.M.M.M.     .l.l.0       M.M.M.M.M.M.M.",
"M.M.M.M.M.M.M.M.M.M.M.M.M.M.M.M.M.M.M.M.M.M.M.M.M.M.M.M.M.M.M.M.M.M.M.M.M.M.M.M.M.M.M.M.M.M.M.M.M.  V l.l.H       M.M.M.M.M.M.M.",
"M.M.M.M.M.M.M.M.M.M.M.M.M.M.M.M.M.M.M.M.M.M.M.M.M.M.M.M.M.M.M.M.M.M.M.M.M.M.M.M.M.M.M.M.M.M.M.M.M.  6 l.l.:.      M.M.M.M.M.M.M.",
"M.M.M.M.M.M.M.M.M.M.M.M.M.M.M.M.M.M.M.M.M.M.M.M.M.M.M.M.M.M.M.M.M.M.M.M.M.M.M.M.M.M.M.M.M.M.M.M.M.  = l.l.q.    M.M.M.M.M.M.M.M.",
"M.M.M.M.M.M.M.M.M.M.M.M.M.M.M.M.M.M.M.M.M.M.M.M.M.M.M.M.M.M.M.M.M.M.M.M.M.M.M.          M.M.M.M.M.  5 l.l.e.    M.M.M.M.M.M.M.M.",
"M.M.M.M.M.M.M.M.M.M.M.M.M.M.M.M.M.M.M.M.M.M.M.M.M.M.M.M.M.M.M.M.M.M.M.M.M.M.M.  @ -     M.M.M.M.M.  0 l.l.q.    M.M.M.M.M.M.M.M.",
"M.M.M.M.M.M.M.M.M.M.M.M.M.M.M.M.M.M.M.M.M.M.M.M.M.M.M.M.M.M.M.M.M.M.M.M.M.M.    I %.[ I $.%.E       G l.l. .    M.M.M.M.M.M.M.M.",
"M.M.M.M.M.M.M.M.M.M.M.M.M.M.M.M.M.M.M.M.M.M.M.M.M.M.M.M.M.M.M.M.M.M.M.M.M.M.    R %.%.%.%.%.$.w .   q.l.l.S   M.M.M.M.M.M.M.M.M.",
"M.M.M.M.M.M.M.M.M.M.M.M.M.M.M.M.M.M.M.M.M.M.M.M.M.M.M.M.M.M.M.M.M.M.M.M.M.M.M.  h %.%.%.%.%.%.%.r   8.l.l.=       M.M.M.M.M.M.M.",
"M.M.M.M.M.M.M.M.M.M.M.M.M.M.M.M.M.M.M.M.M.M.M.M.M.M.M.M.M.M.M.M.M.M.M.M.M.M.M.  @ #.%.%.%.%.%.%.R   # G 9   .           M.M.M.M.",
"M.M.M.M.M.M.M.M.M.M.M.M.M.M.M.M.M.M.M.M.M.M.M.M.M.M.M.M.M.M.M.M.M.M.M.M.M.M.M.    ; ] %.%.%.%.%.%.g       - [ [ k <           M.",
"M.M.M.M.M.M.M.M.M.M.M.M.M.M.M.M.M.M.M.M.M.M.M.M.M.M.M.M.M.M.M.M.M.M.M.M.M.M.M.M.      : h E [ %.%.%.] I R %.%.%.%.%.#.I w .     ",
"M.M.M.M.M.M.M.M.M.M.M.M.M.M.M.M.M.M.M.M.M.M.M.M.M.M.M.M.M.M.M.M.M.M.M.M.M.M.M.M.M.M.            - i R %.%.%.%.%.%.%.%.%.%.$..   ",
"M.M.M.M.M.M.M.M.M.M.M.M.M.M.M.M.M.M.M.M.M.M.M.M.M.M.M.M.M.M.M.M.M.M.M.M.M.M.M.M.M.M.M.M.M.            O p { %.%.%.%.%.%.%.`     ",
"M.M.M.M.M.M.M.M.M.M.M.M.M.M.M.M.M.M.M.M.M.M.M.M.M.M.M.M.M.M.M.M.M.M.M.M.M.M.M.M.M.M.M.M.M.M.M.M.M.M.      . p [ %.%.%.%.[ @   M.",
"M.M.M.M.M.M.M.M.M.M.M.M.M.M.M.M.M.M.M.M.M.M.M.M.M.M.M.M.M.M.M.M.M.M.M.M.M.M.M.M.M.M.M.M.M.M.M.M.M.M.M.M.        ; g k r .     M.",
"M.M.M.M.M.M.M.M.M.M.M.M.M.M.M.M.M.M.M.M.M.M.M.M.M.M.M.M.M.M.M.M.M.M.M.M.M.M.M.M.M.M.M.M.M.M.M.M.M.M.M.M.M.M.              M.M.M.",
"M.M.M.M.M.M.M.M.M.M.M.M.M.M.M.M.M.M.M.M.M.M.M.M.M.M.M.M.M.M.M.M.M.M.M.M.M.M.M.M.M.M.M.M.M.M.M.M.M.M.M.M.M.M.M.M.M.M.M.M.M.M.M.M.",
"M.M.M.M.M.M.M.M.M.M.M.M.M.M.M.M.M.M.M.M.M.M.M.M.M.M.M.M.M.M.M.M.M.M.M.M.M.M.M.M.M.M.M.M.M.M.M.M.M.M.M.M.M.M.M.M.M.M.M.M.M.M.M.M.",
"M.M.M.M.M.M.M.M.M.M.M.M.M.M.M.M.M.M.M.M.M.M.M.M.M.M.M.M.M.M.M.M.M.M.M.M.M.M.M.M.M.M.M.M.M.M.M.M.M.M.M.M.M.M.M.M.M.M.M.M.M.M.M.M."
};
