/* XPM */
static char *fruit[] = {
/* columns rows colors chars-per-pixel */
"64 64 16 1 ",
"  c #231C19",
". c #14462D",
"X c #0A7030",
"o c #6F2C77",
"O c #AF101B",
"+ c #DD3013",
"@ c #FA5F00",
"# c #E65F69",
"$ c #03991F",
"% c #4DBD27",
"& c #F99C0B",
"* c #95D836",
"= c #FFD233",
"- c #B73D94",
"; c #F49990",
": c None",
/* pixels */
"::::::::::::::::::::::::::   :::::::::::::::::::::::::::::::::::",
"::::::::::::::::::::::  : $$ :::::::::::::   :::::::::::::::::::",
"::::  ::::::::::::::: $$ $XX :::::::::  : $$ :::::::::::::::::::",
"::: $$ :::::::::::::: $. .. ::::::::: $$ $XX :::::::::::::::::::",
":: $XXX :   ::::::::::     :::::::::: $. .. ::::::::::::::::::::",
":::      XX. ::::::::::  :::::::::::::     :::::::::::::::::::::",
"::::::      :::::::::: XX :::::::::         ::::::::::::::::::::",
"::::: *$$* ::::::::::: *X :::::::: *% *%% *% :::::::::::::::::::",
":::: *%**%* ::::::::: *%%* ::::::: %% %%% %% :::::::::::::::::::",
"::: *%%**%%* :::::::: **%* ::::::::         ::::::::::::::::::::",
"::: **%%%$%* ::::::: *%%%%* :::::::: *% *% :::::::::::::::::::::",
"::: $%$$%%%$ ::::::: *%$$%* :::::::: %% %% :::::::::::::::::::::",
":::: $$$%%$ :::::::: $%$$%$ :::::::::     ::::::::::::::::::::::",
"::::: $$$$ ::::::::: $$%%$$ :::::::::: *% ::::::::::::::::::::::",
"::::::    ::::::::::: $$$$ ::::::::::: %% ::::::::::::::::::::::",
"::::::::::::::::::::::    :::::::::::::  :::::::::::::::::::::::",
"::::::::::::::::::::::::::   :::::::::::::::::::::::::::::::::::",
"::::::::::::::::::::::  : $$ :::::::::::::   :::::::::::::::::::",
"::::  ::::::::::::::: $$ $XX :::::::::  : $$ :::::::::::::::::::",
"::: $$ :::::::::::::: $. .. ::::::::: $$ $XX :::::::::::::::::::",
":: $XXX :   ::::::::::     :::::::::: $. .. ::::::::::::::::::::",
":::      XX. ::::::::::  :::::::::::::     :::::::::::::::::::::",
"::::::      :::::::::: @@ :::::::::         ::::::::::::::::::::",
"::::: =@@= ::::::::::: =@ :::::::: =& =&& =& :::::::::::::::::::",
":::: =&==&= ::::::::: =&&= ::::::: && &&& && :::::::::::::::::::",
"::: =&&==&&= :::::::: ==&= ::::::::         ::::::::::::::::::::",
"::: ==&&&@&= ::::::: =&&&&= :::::::: =& =& :::::::::::::::::::::",
"::: @&@@&&&@ ::::::: =&@@&= :::::::: && && :::::::::::::::::::::",
":::: @@@&&@ :::::::: @&@@&@ :::::::::     ::::::::::::::::::::::",
"::::: @@@@ ::::::::: @@&&@@ :::::::::: =& ::::::::::::::::::::::",
"::::::    ::::::::::: @@@@ ::::::::::: && ::::::::::::::::::::::",
"::::::::::::::::::::::    :::::::::::::  :::::::::::::::::::::::",
"::::::::::::::::::::::::::   :::::::::::::::::::::::::::::::::::",
"::::::::::::::::::::::  : $$ :::::::::::::   :::::::::::::::::::",
"::::  ::::::::::::::: $$ $XX :::::::::  : $$ :::::::::::::::::::",
"::: $$ :::::::::::::: $. .. ::::::::: $$ $XX :::::::::::::::::::",
":: $XXX :   ::::::::::     :::::::::: $. .. ::::::::::::::::::::",
":::      XX. ::::::::::  :::::::::::::     :::::::::::::::::::::",
"::::::      :::::::::: -- :::::::::         ::::::::::::::::::::",
"::::: ;--; ::::::::::: ;- :::::::: -o -oo -o :::::::::::::::::::",
":::: ;#;;#; ::::::::: ;##; ::::::: oo ooo oo :::::::::::::::::::",
"::: ;##;;##; :::::::: ;;#; ::::::::         ::::::::::::::::::::",
"::: ;;###-#; ::::::: ;####; :::::::: -o -o :::::::::::::::::::::",
"::: -#--###- ::::::: ;#--#; :::::::: oo oo :::::::::::::::::::::",
":::: ---##- :::::::: -#--#- :::::::::     ::::::::::::::::::::::",
"::::: ---- ::::::::: --##-- :::::::::: -o ::::::::::::::::::::::",
"::::::    ::::::::::: ---- ::::::::::: oo ::::::::::::::::::::::",
"::::::::::::::::::::::    :::::::::::::  :::::::::::::::::::::::",
"::::::::::::::::::::::::::   :::::::::::::::::::::::::::::::::::",
"::::::::::::::::::::::  : $$ :::::::::::::   :::::::::::::::::::",
"::::  ::::::::::::::: $$ $XX :::::::::  : $$ :::::::::::::::::::",
"::: $$ :::::::::::::: $. .. ::::::::: $$ $XX :::::::::::::::::::",
":: $XXX :   ::::::::::     :::::::::: $. .. ::::::::::::::::::::",
":::      XX. ::::::::::  :::::::::::::     :::::::::::::::::::::",
"::::::      :::::::::: OO :::::::::         ::::::::::::::::::::",
"::::: @OO@ ::::::::::: @O :::::::: ;+ ;++ ;+ :::::::::::::::::::",
":::: @+@@+@ ::::::::: @++@ ::::::: ++ +++ ++ :::::::::::::::::::",
"::: @++@@++@ :::::::: @@+@ ::::::::         ::::::::::::::::::::",
"::: @@+++O+@ ::::::: @++++@ :::::::: ;+ ;+ :::::::::::::::::::::",
"::: O+OO+++O ::::::: @+OO+@ :::::::: ++ ++ :::::::::::::::::::::",
":::: OOO++O :::::::: O+OO+O :::::::::     ::::::::::::::::::::::",
"::::: OOOO ::::::::: OO++OO :::::::::: ;+ ::::::::::::::::::::::",
"::::::    ::::::::::: OOOO ::::::::::: ++ ::::::::::::::::::::::",
"::::::::::::::::::::::    :::::::::::::  :::::::::::::::::::::::"
};
