/* XPM */
static char *platforms[] = {
/* columns rows colors chars-per-pixel */
"64 64 29 1 ",
"  c #231D16",
". c #351424",
"X c #2A2B26",
"o c #332A22",
"O c #352B22",
"+ c #352B23",
"@ c #362C23",
"# c #352B26",
"$ c #372C24",
"% c #67332D",
"& c #14462D",
"* c #0A7030",
"= c #5D6B77",
"- c #B66B3A",
"; c #CB422E",
": c #864646",
"> c #997D57",
", c #4DBD27",
"< c #F49314",
"1 c #95D836",
"2 c #D89E58",
"3 c #FCD54B",
"4 c #FFF658",
"5 c #3863B3",
"6 c #23A6DE",
"7 c #5CE6DF",
"8 c #F3CF95",
"9 c #AEFFFB",
"0 c None",
/* pixels */
"00            0000                            000000000000000000",
"0 111111111111 00 1111111111111111111111111111 00000000000000000",
" 11,11,,1,11,11  1111,,1,,11,,,1,,11,,,,1,11,11 0000000000000000",
" 1,,11,,,,11,,1  1,11,,,,,11,1,,,,11,1,,,,11,,1 0000000000000000",
" *,,,,,**,,,,,*  *,,,,,**,,,,,,**,,,,,,**,,,,,* 0000000000000000",
" **,*,*&&*,*,**  **,*,*&&*,,*,*&&*,*,,*&&*,*,** 0000000000000000",
" &****    ****&  &****    *****  &****    ****& 0000000000000000",
"0 &&& %%%% &&& 00 &&& %%%% &&& %% &&&&%%%% &&& 00000000000000000",
"00            0000                            000000000000000000",
"0000000000000000000000000000000000000000000000000000000000000000",
"0000000000000000000000000000000000000000000000000000000000000000",
"0000000000000000000000000000000000000000000000000000000000000000",
"0000000000000000000000000000000000000000000000000000000000000000",
"0000000000000000000000000000000000000000000000000000000000000000",
"0000000000000000000000000000000000000000000000000000000000000000",
"0000000000000000000000000000000000000000000000000000000000000000",
"00############0000########OoooO$@@@@@O#O$Ooooo000000000000000000",
"0o888888888888o00o8888888888888888888888888888o00000000000000000",
"o88288228288288oo888822822882228228822228288288o0000000000000000",
"o82288222288228oo828822222882822228828222288228o0000000000000000",
"o-22222--22222-oo-22222--222222--222222--22222-o0000000000000000",
"o--2-2-%%-2-2--oo--2-2-%%-22-2-%%-2-22-%%-2-2--o0000000000000000",
"o%----oooo----%oo%----oooo----%oo%----oooo----%o0000000000000000",
"0o%%%o>>>>o%%%o00o%%%o>>>>o%%%o>>O%%%o>>>>o%%%o00000000000000000",
"00oooooooooooo0000oooooooooooooooooooooooooooo000000000000000000",
"0000000000000000000000000000000000000000000000000000000000000000",
"0000000000000000000000000000000000000000000000000000000000000000",
"0000000000000000000000000000000000000000000000000000000000000000",
"0000000000000000000000000000000000000000000000000000000000000000",
"0000000000000000000000000000000000000000000000000000000000000000",
"0000000000000000000000000000000000000000000000000000000000000000",
"0000000000000000000000000000000000000000000000000000000000000000",
"00............0000............................000000000000000000",
"0.444444444444.00.4444444444444444444444444444.00000000000000000",
".44344334344344..444433433443334334433334344344.0000000000000000",
".43344333344334..434433333443433334434333344334.0000000000000000",
".<33333<<33333<..<33333<<333333<<333333<<33333<.0000000000000000",
".<<3<3<;;<3<3<<..<<3<3<;;<33<3<;;<3<33<;;<3<3<<.0000000000000000",
".;<<<<....<<<<;..;<<<<....<<<<;..;<<<<....<<<<;.0000000000000000",
"0.;;;.::::.;;;.00.;;;.::::.;;;.::.;;;.::::.;;;.00000000000000000",
"00............0000............................000000000000000000",
"0000000000000000000000000000000000000000000000000000000000000000",
"0000000000000000000000000000000000000000000000000000000000000000",
"0000000000000000000000000000000000000000000000000000000000000000",
"0000000000000000000000000000000000000000000000000000000000000000",
"0000000000000000000000000000000000000000000000000000000000000000",
"0000000000000000000000000000000000000000000000000000000000000000",
"0000000000000000000000000000000000000000000000000000000000000000",
"00XXXXXXXXXXXX0000XXXXXXXXXXXXXXXXXXXXXXXXXXXX000000000000000000",
"0X999999999999X00X9999999999999999999999999999X00000000000000000",
"X99799779799799XX999977977997779779977779799799X0000000000000000",
"X97799777799779XX979977777997977779979777799779X0000000000000000",
"X67777766777776XX677777667777776677777766777776X0000000000000000",
"X66767655676766XX667676556776765567677655676766X0000000000000000",
"X56666XXXX66665XX56666XXXX66665XX56666XXXX66665X0000000000000000",
"0X555X====X555X00X555X====X555X==X555X====X555X00000000000000000",
"00XXXXXXXXXXXX0000XXXXXXXXXXXXXXXXXXXXXXXXXXXX000000000000000000",
"0000000000000000000000000000000000000000000000000000000000000000",
"0000000000000000000000000000000000000000000000000000000000000000",
"0000000000000000000000000000000000000000000000000000000000000000",
"0000000000000000000000000000000000000000000000000000000000000000",
"0000000000000000000000000000000000000000000000000000000000000000",
"0000000000000000000000000000000000000000000000000000000000000000",
"0000000000000000000000000000000000000000000000000000000000000000"
};
