/* XPM */
static char *slime_purple[] = {
/* columns rows colors chars-per-pixel */
"96 72 11 1 ",
"  c black",
". c #120C0A",
"X c #131320",
"o c #6F2C77",
"O c #E63713",
"+ c #E65F69",
"@ c #B22F8C",
"# c #B73D94",
"$ c #EDE4DA",
"% c #F3EDE2",
"& c None",
/* pixels */
"&&&&&&&&&&&&&&&&&&&&&&&&&&&&&&&&&&&&&&&&&&&&&&&&&&&&&&&&&&&&&&&&&&&&&&&&&&&&&&&&&&&&&&&&&&&&&&&&",
"&&&&&&&&&&&&&&&&&&&&&&&&&&&&&&&&&&&&&&&&&&&&&&&&&&&&&&&&&&&&&&&&&&&&&&&&&&&&&&&&&&&&&&&&&&&&&&&&",
"&&&&&&&&&&&&&&&&&&&&&&&&&&&&&&&&&&&&&&&&&&&&&&&&&&&&&&&&&&&&&&&&&&&&&&&&&&&&&&&&&&&&&&&&&&&&&&&&",
"&&&&&&&&&&&&&&&&&&&&&&&&&&&&&&&&&&&&&&&&&&&&&&&&&&&&&&&&&&&&&&&&&&&&&&&&&&&&&&&&&&&&&&&&&&&&&&&&",
"&&&&&&&&&&&&&&&&&&&&&&&&&&&&&&&&&&&&&&&&&&&&&&&&&&&&&&&&&&&&&&&&&&&&&&&&&&&&&&&&&&&&&&&&&&&&&&&&",
"&&&&&&&&&&&&&&&&&&&&&&&&&&&&&&&&&&&&&&&&&&&&&&&&&&&&&&&&&&&&&&&&&&&&&&&&&&&&&&&&&&&&&&&&&&&&&&&&",
"&&&&&&&&&&&&&&&&&&&&&&&&&&&&&&&&&&&&&&&&&&&&&&&&&&&&&&&&&&&&&&&&&&&&&&&&&&&&&&&&&&&&&&&&&&&&&&&&",
"&&&&&&&&&&&&&&&&&&&&&&&&&&&&&&&&&&&&&&&&&&&&&&&&&&&&&&&&&&&&&&&&&&&&&&&&&&&&&&&&&&&&&&&&&&&&&&&&",
"&&&&&&&&&&&&&&&&&&&&&&&&&&&&&&&&&&&&&&&&&&&&&&&&&&&&&&&&&&&&&&&&&&&&&&&&&&&&&&&&&&&&&&&&&&&&&&&&",
"&&&&&&&&&&&&&&&&&&&&&&&&&&&&&&&&&&&&&&&&&&&&&&&&&&&&&&&&&&&&&&&&&&&&&&&&&&&&&&&&&&&&&&&&&&&&&&&&",
"&&&&&&&&&&&&&&&&&&&&&&&&&&&&&&&&&&&&&&&&&&&&&&&&&&&&&&&&&&&&&&&&&&&&&&&&&&&&&&&&&&&&&&&&&&&&&&&&",
"&&&&&&&&&&&&&&&&&&&&&&&&&&&&&&&&&&&&&&&&&&&&&&&&&&&&&&&&&&&&&&&&&&&&&&&&&&&&&&&&&&&&&&&&&&&&&&&&",
"&&&&&&&&&&&&&&&&&&&&&&&&&&&&&&&&&&&&&&&&&&&&&&&&&&&&&&&&&&&&&&&&&&&&&&&&&&&&&&&..........&&&&&&&",
"&&&&&&&&&&&&&&&&&&&&&&&&&&&&&&&&&&&&&&&&&&&&&&&&&&&&&&&..........&&&&&&&&&&&&&&.$$$#####.&&&&&&&",
"&&&&&&&&&&&&&&&&&&&&&&&&&&&&&&&..........&&&&&&&&&&&&&&.$$$#####.&&&&&&&&&&&&&&.$++++++#.&&&&&&&",
"&&&&&&&..........&&&&&&&&&&&&&&.$$$#####.&&&&&&&&&&&&&&.$++++++#.&&&&&&&&&&&&&&.#+..+++..&&&&&&&",
"&&&&&&&.$$$#####.&&&&&&&&&&&&&&.$++++++#.&&&&&&&&&&&&&&.#++++++#.&&&&&&&&&&&&&&.#+..+++..&&&&&&&",
"&&&&&&&.$++++++#.&&&&&&&&&&&&&&.#++++++#.&&&&&&&&&&&&&&.#+..+++..&&&&&&&&&&&&&&.#++++++#.&&&&&&&",
"&&&&&&&.#++++++#.&&&&&&&&&&&&&&.#++++++#.&&&&&&&&&&&&&&.#++++++#.&&&&&&&&&&&&&&.#.+.+.+..&&&&&&&",
"&&&&&&..#++++++#..&&&&&&&&&&&&..#++++++#..&&&&&&&&&&&&..#.+++.+...&&&&&&&&&&&&....+...+...&&&&&&",
"&&&&&..##++++++##..&&&&&&&&&&..##++.+.+##..&&&&&&&&&&..##.+.+.+.o..&&&&&&&&&&..o....#...o..&&&&&",
"&&&&&.oo++++++++oo.&&&&&&&&&&.oo#.+.++++oo.&&&&&&&&&&.oo#.+.+.++oo.&&&&&&&&&&.oo#.#.#.#.oo.&&&&&",
"&&&&&.oooooooooooo.&&&&&&&&&&.oooooooooooo.&&&&&&&&&&.oooooooooooo.&&&&&&&&&&.oooooooooooo.&&&&&",
"&&&&&..............&&&&&&&&&&..............&&&&&&&&&&..............&&&&&&&&&&..............&&&&&",
"&&&&&&&&&&&&&&&&&&&&&&&&&&&&&&&&&&&&&&&&&&&&&&&&&&&&&&&&&&&&&&&&&&&&&&&&&&&&&&&&&&&&&&&&&&&&&&&&",
"&&&&&&&&&&&&&&&&&&&&&&&&&&&&&&&&&&&&&&&&&&&&&&&&&&&&&&&&&&&&&&&&&&&&&&&&&&&&&&&&&&&&&&&&&&&&&&&&",
"&&&&&&&&&&&&&&&&&&&&&&&&&&&&&&&&&&&&&&&&&&&&&&&&&&&&&&&&&&&&&&&&&&&&&&&&&&&&&&&&&&&&&&&&&&&&&&&&",
"&&&&&&&&&&&&&&&&&&&&&&&&&&&&&&&&&&&&&&&&&&&&&&&&&&&&&&&&&&&&&&&&&&&&&&&&&&&&&&&&&&&&&&&&&&&&&&&&",
"&&&&&&&&&&&&&&&&&&&&&&&&&&&&&&&&&&&&&&&&&&&&&&&&&&&&&&&&&&&&&&&&&&&&&&&&&&&&&&&&&&&&&&&&&&&&&&&&",
"&&&&&&&&&&&&&&&&&&&&&&&&&&&&&&&&&&&&&&&&&&&&&&&&&&&&&&&&&&&&&&&&&&&&&&&&&&&&&&&&&&&&&&&&&&&&&&&&",
"&&&&&&&&&&&&&&&&&&&&&&&&&&&&&&&&&&&&&&&&&&&&&&&&&&&&&&&&&&&&&&&&&&&&&&&&&&&&&&&&&&&&&&&&&&&&&&&&",
"&&&&&&&&&&&&&&&&&&&&&&&&&&&&&&&&&&&&&&&&&&&&&&&&&&&&&&&&&&&&&&&&&&&&&&&&&&&&&&&&&&&&&&&&&&&&&&&&",
"&&&&&&&&&&&&&&&&&&&&&&&&&&&&&&&&&&&&&&&&&&&&&&&&&&&&&&&&&&&&&&&&&&&&&&&&&&&&&&&&&&&&&&&&&&&&&&&&",
"&&&&&&&&&&&&&&&&&&&&&&&&&&&&&&&&&&&&&&&&&&&&&&&&&&&&&&&..........&&&&&&&&&&&&&&&&&&&&&&&&&&&&&&&",
"&&&&&&&&&&&&&&&&&&&&&&&&&&&&&&&&&&&&&&&&&&&&&&&&&&&&&&&.$$$#####.&&&&&&&&&&&&&&&&&&&&&&&&&&&&&&&",
"&&&&&&&&&&&&&&&&&&&&&&&&&&&&&&&..........&&&&&&&&&&&&&&.$++++++#.&&&&&&&&&&&&&&..........&&&&&&&",
"&&&&&&&..........&&&&&&&&&&&&&&.$$$#####.&&&&&&&&&&&&&&.#+..+++..&&&&&&&&&&&&&&.$$$#####.&&&&&&&",
"&&&&&&&.$$$#####.&&&&&&&&&&&&&&.$++++++#.&&&&&&&&&&&&&&.#+..+++..&&&&&&&&&&&&&&.$++++++#.&&&&&&&",
"&&&&&&&.$++++++#.&&&&&&&&&&&&&&.#+..+++..&&&&&&&&&&&&&&.#++++++#.&&&&&&&&&&&&&&.#+..+++..&&&&&&&",
"&&&&&&&.#+..+++..&&&&&&&&&&&&&&.#+..+++..&&&&&&&&&&&&&&.#.+.+.+..&&&&&&&&&&&&&&.#+..+++..&&&&&&&",
"&&&&&&&.#+..+++..&&&&&&&&&&&&&&.#++++++#.&&&&&&&&&&&&&&...+...+..&&&&&&&&&&&&&&.#++++++#.&&&&&&&",
"&&&&&&&.#++++++#.&&&&&&&&&&&&&&.#.+.+.+..&&&&&&&&&&&&&&&........&&&&&&&&&&&&&&&.#.+.+.+..&&&&&&&",
"&&&&&&&.#.+.+.+..&&&&&&&&&&&&&&...+...+..&&&&&&&&&&&&&&..........&&&&&&&&&&&&&&...+...+..&&&&&&&",
"&&&&&&....+...+...&&&&&&&&&&&&............&&&&&&&&&&&&............&&&&&&&&&&&&............&&&&&&",
"&&&&&..o....#...o..&&&&&&&&&&..o....#...o..&&&&&&&&&&..o....#...o..&&&&&&&&&&..o....#...o..&&&&&",
"&&&&&.oo#.#.#.#.oo.&&&&&&&&&&.oo#.#.#.#.oo.&&&&&&&&&&.oo#.#.#.#.oo.&&&&&&&&&&.oo#.#.#.#.oo.&&&&&",
"&&&&&.oooooooooooo.&&&&&&&&&&.oooooooooooo.&&&&&&&&&&.oooooooooooo.&&&&&&&&&&.oooooooooooo.&&&&&",
"&&&&&..............&&&&&&&&&&..............&&&&&&&&&&..............&&&&&&&&&&..............&&&&&",
"&&&&&&&&&&&&&&&&&&&&&&&&&&&&&&&&&&&&&&&&&&&&&&&&&&&&&&&&&&&&&&&&&&&&&&&&&&&&&&&&&&&&&&&&&&&&&&&&",
"&&&&&&&&&&&&&&&&&&&&&&&&&&&&&&&&&&&&&&&&&&&&&&&&&&&&&&&&&&&&&&&&&&&&&&&&&&&&&&&&&&&&&&&&&&&&&&&&",
"&&&&&&&&&&&&&&&&&&&&&&&&&&&&&&&&&&&&&&&&&&&&&&&&&&&&&&&&&&&&&&&&&&&&&&&&&&&&&&&&&&&&&&&&&&&&&&&&",
"&&&&&&&&&&&&&&&&&&&&&&&&&&&&&&&&&&&&&&&&&&&&&&&&&&&&&&&&&&&&&&&&&&&&&&&&&&&&&&&&&&&&&&&&&&&&&&&&",
"&&&&&&&&&&&&&&&&&&&&&&&&&&&&&&&&&&&&&&&&&&&&&&&&&&&&&&&&&&&&&&&&&&&&&&&&&&&&&&&&&&&&&&&&&&&&&&&&",
"&&&&&&&&&&&&&&&&&&&&&&&&&&&&&&&&&&&&&&&&&&&&&&&&&&&&&&&&&&&&&&&&&&&&&&&&&&&&&&&&&&&&&&&&&&&&&&&&",
"&&&&&&&&&&&&&&&&&&&&&&&&&&&&&&&&&&&&&&&&&&&&&&&&&&&&&&&&&&&&&&&&&&&&&&&&&&&&&&&&&&&&&&&&&&&&&&&&",
"&&&&&&&&&&&&&&&&&&&&&&&&&&&&&&&&&&&&&&&&&&&&&&&&&&&&&&&&&&&&&&&&&&&&&&&&&&&&&&&&&&&&&&&&&&&&&&&&",
"&&&&&&&&&&&&&&&&&&&&&&&&&&&&&&&&&&&&&&&&&&&&&&&&&&&&&&&&&&&&&&&&&&&&&&&&&&&&&&&&&&&&&&&&&&&&&&&&",
"&&&&&&&..........&&&&&&&&&&&&&&&&&&&&&&&&&&&&&&&&&&&&&&&&&&&&&&&&&&&&&&&&&&&&&&&&&&&&&&&&&&&&&&&",
"&&&&&&&.$$$#####.&&&&&&&&&&&&&&&&&&&&&&&&&&&&&&&&&&&&&&&&&&&&&&&&&&&&&&&&&&&&&&&&&&&&&&&&&&&&&&&",
"&&&&&&&.$++++++#.&&&&&&&&&&&&&..........&&&&&&&&&&&&&&XXXXXXXXXX&&&&&&&&&&&&&&..........&&&&&&&&",
"&&&&&&&.#+..+++..&&&&&&&&&&&&&.$$$#####.&&&&&&&&&&&&&&X%%%OOOOOX&&&&&&&&&&&&&&.$$$#####.&&&&&&&&",
"&&&&&&&.#+..+++..&&&&&&&&&&&&&.$++++++#.&&&&&&&&&&&&&&X%OOOOOOOX&&&&&&&&&&&&&&.$++++++#.&&&&&&&&",
"&&&&&&&.#++++++#.&&&&&&&&&&&&&.#++++++#.&&&&&&&&&&&&&&XOOOOOOOOX&&&&&&&&&&&&&&.#++++++#.&&&&&&&&",
"&&&&&&&.#.+.+.+..&&&&&&&&&&&&&.#+..+++..&&&&&&&&&&&&&&XOO  OOOXX&&&&&&&&&&&&&&.#+..+++..&&&&&&&&",
"&&&&&&&...+...+..&&&&&&&&&&&&&.#++++++#.&&&&&&&&&&&&&&XOOOOOOOOX&&&&&&&&&&&&&&.#++++++#.&&&&&&&&",
"&&&&&&&&........&&&&&&&&&&&&&&.#.+.+.+..&&&&&&&&&&&&&&XOXOXOXOXX&&&&&&&&&&&&&&.#.+.+.+..&&&&&&&&",
"&&&&&&&..........&&&&&&&&&&&&&...+...+...&&&&&&&&&&&&&XXXOXXXOXXX&&&&&&&&&&&&&...+...+...&&&&&&&",
"&&&&&&............&&&&&&&&&&&&............&&&&&&&&&&&&XXXXXXXXXXXX&&&&&&&&&&&&............&&&&&&",
"&&&&&..o....#...o..&&&&&&&&&&..o....#...o..&&&&&&&&&&XXOXXXXOXXXOXX&&&&&&&&&&..o....#...o..&&&&&",
"&&&&&.oo@.@.#.#.oo.&&&&&&&&&&.oo#.#.#.#.oo.&&&&&&&&&&XOOOXOXOXOXOOX&&&&&&&&&&.oo#.#.#.#.oo.&&&&&",
"&&&&&.oooooooooooo.&&&&&&&&&&.oooooooooooo.&&&&&&&&&&XOOOOOOOOOOOOX&&&&&&&&&&.oooooooooooo.&&&&&",
"&&&&&..............&&&&&&&&&&..............&&&&&&&&&&XXXXXXXXXXXXXX&&&&&&&&&&..............&&&&&"
};
