/* XPM */
static char *slime_green[] = {
/* columns rows colors chars-per-pixel */
"96 72 8 1 ",
"  c #131320",
". c #161320",
"X c #E63713",
"o c #6DA200",
"O c #BAD200",
"+ c #F3EDE2",
"@ c #F3F1E2",
"# c None",
/* pixels */
"################################################################################################",
"################################################################################################",
"################################################################################################",
"################################################################################################",
"################################################################################################",
"################################################################################################",
"################################################################################################",
"################################################################################################",
"################################################################################################",
"################################################################################################",
"################################################################################################",
"################################################################################################",
"###############################################################################..........#######",
"#######################################################..........##############.@@@ooooo.#######",
"###############################..........##############.@@@ooooo.##############.@OOOOOOo.#######",
"#######..........##############.@@@ooooo.##############.@OOOOOOo.##############.oO..OOO..#######",
"#######.@@@ooooo.##############.@OOOOOOo.##############.oOOOOOOo.##############.oO..OOO..#######",
"#######.@OOOOOOo.##############.oOOOOOOo.##############.oO..OOO..##############.oOOOOOOo.#######",
"#######.oOOOOOOo.##############.oOOOOOOo.##############.oOOOOOOo.##############.o.O.O.O..#######",
"######..oOOOOOOo..############..oOOOOOOo..############..o.OOO.O...############....O...O...######",
"#####..ooOOOOOOoo..##########..ooOO.O.Ooo..##########..oo.O.O.O.o..##########..o....O...o..#####",
"#####.ooOOOOOOOOoo.##########.ooO.O.OOOOoo.##########.ooO.O.O.OOoo.##########.ooO.O.O.O.oo.#####",
"#####.oooooooooooo.##########.oooooooooooo.##########.oooooooooooo.##########.oooooooooooo.#####",
"#####..............##########..............##########..............##########..............#####",
"################################################################################################",
"################################################################################################",
"################################################################################################",
"################################################################################################",
"################################################################################################",
"################################################################################################",
"################################################################################################",
"################################################################################################",
"################################################################################################",
"#######################################################..........###############################",
"#######################################################.@@@ooooo.###############################",
"###############################..........##############.@OOOOOOo.##############..........#######",
"#######..........##############.@@@ooooo.##############.oO..OOO..##############.@@@ooooo.#######",
"#######.@@@ooooo.##############.@OOOOOOo.##############.oO..OOO..##############.@OOOOOOo.#######",
"#######.@OOOOOOo.##############.oO..OOO..##############.oOOOOOOo.##############.oO..OOO..#######",
"#######.oO..OOO..##############.oO..OOO..##############.o.O.O.O..##############.oO..OOO..#######",
"#######.oO..OOO..##############.oOOOOOOo.##############...O...O..##############.oOOOOOOo.#######",
"#######.oOOOOOOo.##############.o.O.O.O..###############........###############.o.O.O.O..#######",
"#######.o.O.O.O..##############...O...O..##############..........##############...O...O..#######",
"######....O...O...############............############............############............######",
"#####..o....O...o..##########..o....O...o..##########..o....O...o..##########..o....O...o..#####",
"#####.ooO.O.O.O.oo.##########.ooO.O.O.O.oo.##########.ooO.O.O.O.oo.##########.ooO.O.O.O.oo.#####",
"#####.oooooooooooo.##########.oooooooooooo.##########.oooooooooooo.##########.oooooooooooo.#####",
"#####..............##########..............##########..............##########..............#####",
"################################################################################################",
"################################################################################################",
"################################################################################################",
"################################################################################################",
"################################################################################################",
"################################################################################################",
"################################################################################################",
"################################################################################################",
"################################################################################################",
"#######..........###############################################################################",
"#######.@@@ooooo.###############################################################################",
"#######.@OOOOOOo.#############..........##############          ##############..........########",
"#######.oO..OOO..#############.@@@ooooo.############## +++XXXXX ##############.@@@ooooo.########",
"#######.oO..OOO..#############.@OOOOOOo.############## +XXXXXXX ##############.@OOOOOOo.########",
"#######.oOOOOOOo.#############.oOOOOOOo.############## XXXXXXXX ##############.oOOOOOOo.########",
"#######.o.O.O.O..#############.oO..OOO..############## XX  XXX  ##############.oO..OOO..########",
"#######...O...O..#############.oOOOOOOo.############## XXXXXXXX ##############.oOOOOOOo.########",
"########........##############.o.O.O.O..############## X X X X  ##############.o.O.O.O..########",
"#######..........#############...O...O...#############   X   X   #############...O...O...#######",
"######............############............############            ############............######",
"#####..o....O...o..##########..o....O...o..##########  X    X   X  ##########..o....O...o..#####",
"#####.ooO.O.O.O.oo.##########.ooO.O.O.O.oo.########## XXX X X X XX ##########.ooO.O.O.O.oo.#####",
"#####.oooooooooooo.##########.oooooooooooo.########## XXXXXXXXXXXX ##########.oooooooooooo.#####",
"#####..............##########..............##########              ##########..............#####"
};
