/* XPM */
static const char *wall_64x64[] = {
/* columns rows colors chars-per-pixel */
"64 64 194 2 ",
"   c black",
".  c #010000",
"X  c #010100",
"o  c #010101",
"O  c #020101",
"+  c #030101",
"@  c #040101",
"#  c #040202",
"$  c #050202",
"%  c #060202",
"&  c #070302",
"*  c #070403",
"=  c #0B0404",
"-  c #0C0504",
";  c #0D0604",
":  c #0D0605",
">  c #0D0705",
",  c #100706",
"<  c #110706",
"1  c #110806",
"2  c #120907",
"3  c #130907",
"4  c #150907",
"5  c #150A08",
"6  c #160B08",
"7  c #170B09",
"8  c #190908",
"9  c #1A0B09",
"0  c #1A0C09",
"q  c #1B0C09",
"w  c #1B0C0A",
"e  c #1A0D0A",
"r  c #1B0D0A",
"t  c #1C0C0A",
"y  c #1C0D0A",
"u  c #1D0D0A",
"i  c #1C0D0B",
"p  c #1F0C0A",
"a  c #1E0D0A",
"s  c #1E0D0B",
"d  c #1C0E0B",
"f  c #1D0E0B",
"g  c #1E0F0B",
"h  c #1F0F0C",
"j  c #250E0C",
"k  c #27110E",
"l  c #28120E",
"z  c #30120F",
"x  c #291410",
"c  c #2C1410",
"v  c #2C1511",
"b  c #2E1611",
"n  c #311611",
"m  c #381311",
"M  c #3A1512",
"N  c #3C1713",
"B  c #3E1714",
"V  c #361813",
"C  c #371813",
"Z  c #371914",
"A  c #381914",
"S  c #391914",
"D  c #391A15",
"F  c #381B15",
"G  c #391B15",
"H  c #3A1A14",
"J  c #3B1A15",
"K  c #391C15",
"L  c #391C16",
"P  c #3A1C16",
"I  c #3B1C16",
"U  c #3B1D16",
"Y  c #3C1C16",
"T  c #3C1D17",
"R  c #3D1D17",
"E  c #3E1E17",
"W  c #3E1E18",
"Q  c #3F1E18",
"!  c #471B16",
"~  c #401D17",
"^  c #4D1A17",
"/  c #4D1D18",
"(  c #4F1E19",
")  c #501E19",
"_  c #531F1A",
"`  c #45211A",
"'  c #53201A",
"]  c #54201B",
"[  c #56211B",
"{  c #50241C",
"}  c #56261E",
"|  c #5E231E",
" . c #5E241E",
".. c #552920",
"X. c #5D2D23",
"o. c #652620",
"O. c #702522",
"+. c #732924",
"@. c #742C24",
"#. c #772D26",
"$. c #792E26",
"%. c #7A2E27",
"&. c #7C2F27",
"*. c #733228",
"=. c #753429",
"-. c #76342A",
";. c #78352A",
":. c #78362B",
">. c #79362B",
",. c #79372B",
"<. c #7A362B",
"1. c #7B362B",
"2. c #7B372B",
"3. c #7C3A2E",
"4. c #7D3A2E",
"5. c #7D3D2F",
"6. c #7F3C2F",
"7. c #7D3D30",
"8. c #7E3D30",
"9. c #7F3D30",
"0. c #7F3E30",
"q. c #852C28",
"w. c #833129",
"e. c #833229",
"r. c #8E362D",
"t. c #8F362D",
"y. c #803E30",
"u. c #803E31",
"i. c #813E31",
"p. c #873C30",
"a. c #9C3B31",
"s. c #9D3B32",
"d. c #9E3C32",
"f. c #A13D33",
"g. c #A33E33",
"h. c #A83833",
"j. c #AE3E36",
"k. c #B83D37",
"l. c #844032",
"z. c #8D4536",
"x. c #AB4136",
"c. c #AD4237",
"v. c #A5493A",
"b. c #B34439",
"n. c #B44439",
"m. c #B64539",
"M. c #B7453A",
"N. c #B9463A",
"B. c #BE483C",
"V. c #C0493D",
"C. c #C34A3E",
"Z. c #C44A3E",
"A. c #AE5442",
"S. c #AE5542",
"D. c #B65140",
"F. c #B85241",
"G. c #B95241",
"H. c #B95342",
"J. c #BA5242",
"K. c #BA5342",
"L. c #BB5342",
"P. c #BE5846",
"I. c #BF5946",
"U. c #CA4C40",
"Y. c #CC4D40",
"T. c #CD4E41",
"R. c #CE4E41",
"E. c #C15644",
"W. c #C05946",
"Q. c #C05B48",
"!. c #C15E49",
"~. c #C25E49",
"^. c #C35E49",
"/. c #C35E4A",
"(. c #C35F4A",
"). c #C45F4A",
"_. c #C55F4A",
"`. c #CB5A48",
"'. c #D25D4A",
"]. c #C5604B",
"[. c #C6604B",
"{. c #C7604B",
"}. c #C7614B",
"|. c #DC604D",
" X c #DD624E",
".X c #DF644F",
"XX c #D66851",
"oX c #D86952",
"OX c #E16752",
"+X c #E46A53",
"@X c #E46B54",
"#X c #E86E56",
"$X c #EB7259",
"%X c None",
/* pixels */
"%X                          %X%X%X                                                            %X%X%X                          %X",
"    w t t t t t t t t t t   8 R.o.  < w t t t t t t t w w w w w w w w w w t t t t t t t t 4   o.R.8   w t t t t t t t t t t     ",
"  w  X X X X X@X$X$X$X$X$Xw   R./   v. X X X X.X$X$X$X$X$X$X$X$X$X$X$X$X$X$X$X$X$X$X$X$X$XA.  / R.  w  X X X X X+X$X$X$X$X$Xt   ",
"  t  X X X X X@X$X$X$X$X$Xt   R./   v. X X X X.X$X$X$X$X$X$X$X$X$X$X$X$X$X$X$X$X$X$X$X$X$XA.  / R.  w  X X X X X+X$X$X$X$X$Xt   ",
"  t  X X X X X@X$X$X$X$X$Xt   R./   v. X X X X.X$X$X$X$X$X$X$X$X$X$X$X$X$X$X$X$X$X$X$X$X$XA.  / R.  8  X X X X X+X$X$X$X$X$Xt   ",
"  l  X X X X X@X$X$X$X$X$Xt   R./   v. X X X X.X$X$X$X$X$X$X$X$X$X$X$X$X$X$X$X$X$X$X$X$X$XA.  / R.  w  X X X X X+X$X$X$X$X$Xt   ",
"%XE. X X X X X@X$X$X$X$X$Xt   R./   v. X X X X.X$X$X$X$X$X$X$X$X$X$X$X$X$X$X$X$X$X$X$X$X$XA.  / R.  w  X X X X X+X$X$X$X$X$Xt   ",
"%X X X X X X X@X$X$X$X$X$Xt   R./   v. X X X X.X$X$X$X$X$X$X$X$X$X$X$X$X$X$X$X$X$X$X$X$X$XA.  / R.  w  X X X X X+X$X$X$X$X$Xt   ",
"%X'. X X X X X@X$X$X$X$X$Xt   R./   v. X X X X.X$X$X$X$X$X$X$X$X$X$X$X$X$X$X$X$X$X$X$X$X$XA.  / R.  w  X X X X X+X$X$X$X$X$Xt   ",
"  n  X X X X X@X$X$X$X$X$Xt   R./   v. X X X X.X$X$X$X$X$X$X$X$X$X$X$X$X$X$X$X$X$X$X$X$X$XA.  / R.  w  X X X X X+X$X$X$X$X$Xt   ",
"  t  X X X X X@X$X$X$X$X$Xt   R./   v. X X X X.X$X$X$X$X$X$X$X$X$X$X$X$X$X$X$X$X$X$X$X$X$XA.  / R.  w  X X X X X+X$X$X$X$X$Xt   ",
"  t  X X X X X@X$X$X$X$X$Xt   R./   v. X X X X.X$X$X$X$X$X$X$X$X$X$X$X$X$X$X$X$X$X$X$X$X$XA.  / R.  w  X X X X X+X$X$X$X$X$Xt   ",
"  t  X X X X X@X$X$X$X$X$Xt   R./   v. X X X X.X$X$X$X$X$X$X$X$X$X$X$X$X$X$X$X$X$X$X$X$X$XA.  / R.  w  X X X X X+X$X$X$X$X$Xt   ",
"  $ C Z Z C Z G U U U U U $ < R.|   k C Z Z Z G U U U U U U U U U U U U U U U U U U U U U x    .R.< $ Z Z Z C Z G U U U U U $   ",
"%X$                       $ e.R.n.t                                                         t n.R.e.$                       $ %X",
"%Xk.h.h.h.h.h.j.n.n.n.n.n.Z.R.R.R.R.n.b.n.n.n.n.b.n.n.n.n.n.n.n.n.n.n.n.n.n.n.n.n.n.n.n.n.n.R.R.R.R.Z.n.n.n.b.b.n.n.n.n.n.n.Z.%X",
"%X^ m m m m m N N N N N N N N N N N N N N N N N N N N N N ! f.R.R.f.! N N N N N N N N N N N N N N N N N N N N N N N N N N N ' %X",
"                                                            = V.V.*                                                             ",
"  4 D.J.J.J.J.W.).~.~.~.~.~.~.~.~.~.~.~.~.~.~.~.~.~.).).).`   d.d.  ~ J.J.J.J.J.Q.~.~.~.~.~.~.~.~.~.~.~.~.~.~.).[.[.[.[.).~.5   ",
"  t  X X X X X@X$X$X$X$X$X$X$X$X$X$X$X$X$X$X$X$X$X$X$X$X$X..  s.s.  {  X X X X X#X$X$X$X$X$X$X$X$X$X$X$X$X$X$X$X$X$X$X$X$X$Xt   ",
"  t  X X X X X@X$X$X$X$X$X$X$X$X$X$X$X$X$X$X$X$X$X$X$X$X$X..  s.s.  {  X X X X X#X$X$X$X$X$X$X$X$X$X$X$X$X$X$X$X$X$X$X$X$X$Xt   ",
"  t  X X X X X@X$X$X$X$X$X$X$X$X$X$X$X$X$X$X$X$X$X$X$X$X$X..  s.s.  {  X X X X X#X$X$X$X$X$X$X$X$X$X$X$X$X$X$X$X$X$X$X$X$X$Xt   ",
"  t  X X X X X@X$X$X$X$X$X$X$X$X$X$X$X$X$X$X$X$X$X$X$X$X$X..  s.s.  {  X X X X X#X$X$X$X$X$X$X$X$X$X$X$X$X$X$X$X$X$X$X$X$X$Xt   ",
"  t  X X X X X@X$X$X$X$X$X$X$X$X$X$X$X$X$X$X$X$X$X$X$X$X$X..  s.s.  {  X X X X X#X$X$X$X$X$X$X$X$X$X$X$X$X$X$X$X$X$X$X$X$X$Xt   ",
"  t  X X X X X@X$X$X$X$X$X$X$X$X$X$X$X$X$X$X$X$X$X$X$X$X$X..  s.s.  {  X X X X X#X$X$X$X$X$X$X$X$X$X$X$X$X$X$X$X$X$X$X$X$X$Xt   ",
"  t  X X X X X@X$X$X$X$X$X$X$X$X$X$X$X$X$X$X$X$X$X$X$X$X$X..  s.s.  {  X X X X X#X$X$X$X$X$X$X$X$X$X$X$X$X$X$X$X$X$X$X$X$X$Xt   ",
"  t  X X X X X@X$X$X$X$X$X$X$X$X$X$X$X$X$X$X$X$X$X$X$X$X$X..  s.s.  {  X X X X X#X$X$X$X$X$X$X$X$X$X$X$X$X$X$X$X$X$X$X$X$X$Xt   ",
"  t  X X X X X@X$X$X$X$X$X$X$X$X$X$X$X$X$X$X$X$X$X$X$X$X$X..  s.s.  {  X X X X X#X$X$X$X$X$X$X$X$X$X$X$X$X$X$X$X$X$X$X$X$X$Xt   ",
"  t  X X X X X@X$X$X$X$X$X$X$X$X$X$X$X$X$X$X$X$X$X$X$X$X$X..  s.s.  {  X X X X X#X$X$X$X$X$X$X$X$X$X$X$X$X$X$X$X$X$X$X$X$X$Xt   ",
"  : =.<.<.<.<.4.u.0.0.0.5.5.5.5.0.0.0.0.0.0.0.0.0.u.u.u.u.v   f.f.  l =.<.<.<.<.5.u.0.0.0.5.5.5.5.0.0.0.0.0.0.0.0.0.u.u.u.u.:   ",
"                                                            j U.U.j                                                             ",
"%Xq.O.O.O.O.O.+.#.#.#.#.#.#.#.#.#.#.#.#.#.#.#.#.#.#.#.#.#.e.V.R.R.V.e.#.#.#.#.#.#.#.#.#.#.#.#.#.#.#.#.#.#.#.#.#.#.#.#.#.#.#.t.%X",
"%Xq.O.O.O.O.O.+.#.#.#.#.#.t.R.R.R.x.$.#.#.#.#.#.#.#.#.#.#.#.#.#.#.#.#.#.#.$.V.R.R.d.#.#.#.$.x.R.R.R.t.#.#.#.#.#.#.#.#.#.#.#.t.%X",
"                            ' R.s.$                                         *. X'.4         $ s.R.[                             ",
"  : <.<.<.<.<.4.u.u.u.u.u.: $ R.'   } <.<.<.<.<.0.0.5.0.0.0.0.0.0.0.0.u.u.l.oX$X$XA.u.u.u.X.  [ R.& : <.<.<.<.<.4.u.u.u.u.u.:   ",
"  t  X X X X X@X$X$X$X$X$Xt   R./   v. X X X X.X$X$X$X$X$X$X$X$X$X$X$X$X$X$X$X$X$X$X$X$X$XA.  / R.  w  X X X X X+X$X$X$X$X$Xt   ",
"  t  X X X X X@X$X$X$X$X$Xw   R./   v. X X X X.X$X$X$X$X$X$X$X$X$X$X$X$X$X$X$X$X$X$X$X$X$XA.  / R.  w  X X X X X+X$X$X$X$X$Xt   ",
"  t  X X X X X@X$X$X$X$X$Xw   R./   v. X X X X.X$X$X$X$X$X$X$X$X$X$X$X$X$X$X$X$X$X$X$X$X$XA.  / R.  8  X X X X X+X$X$X$X$X$Xt   ",
"  w  X X X X X@X$X$X$X$X$Xt   R./   v. X X X X.X$X$X$X$X$X$X$X$X$X$X$X$X$X$X$X$X$X$X$X$X$XA.  / R.  w  X X X X X+X$X$X$X$X$Xt   ",
"  t  X X X X X@X$X$X$X$X$Xt   R./   v. X X X X.X$X$X$X$X$X$X$X$X$X$X$X$X$X$X$X$X$X$X$X$X$XA.  / R.  w  X X X X X+X$X$X$X$X$Xt   ",
"  t  X X X X X@X$X$X$X$X$Xt   R./   v. X X X X.X$X$X$X$X$X$X$X$X$X$X$X$X$X$X$X$X$X$X$X$X$XA.  / R.  8  X X X X X+X$X$X$X$X$Xt   ",
"  t  X X X X X@X$X$X$X$X$Xt   R./   v. X X X X.X$X$X$X$X$X$X$X$X$X$X$X$X$X$X$X$X$X$X$X$X$XA.  / R.  8  X X X X X+X$X$X$X$X$Xt   ",
"  t  X X X X X@X$X$X$X$X$Xt   R./   v. X X X X.X$X$X$X$X$X$X$X$X$X$X$X$X$X$X$X$X$X$X$X$X$XA.  / R.  w  X X X X X+X$X$X$X$X$Xt   ",
"  t  X X X X X@X$X$X$X$X$Xt   R./   v. X X X X.X$X$X$X$X$X$X$X$X$X$X$X$X$X$X$X$X$X$X$X$X$XA.  / R.  w  X X X X X+X$X$X$X$X$Xt   ",
"  t  X X X X X@X$X$X$X$X$Xt   R./   v. X X X X.X$X$X$X$X$X$X$X$X$X$X$X$X$X$X$X$X$X$X$X$X$XA.  / R.  w  X X X X X+X$X$X$X$X$Xt   ",
"  4 J.J.J.J.J.I.).).).).).5   R./   p.J.J.J.J.J.~.~.~.~.~.~.~.~.~.~.~.~.~.~.~.).[.[.[.[.~.z.  ) R.  2 J.J.J.J.J.I.).).).).).5   ",
"                            z R.&.                                                            &.R.z                             ",
"%X^ m m m m m N N N N N N ' N.R.R.@.B N N N N N N N N N N N N N N N N N N N N N N N N N N B #.R.R.N.' N N N N N N N N N N N ) %X",
"%Xk.h.h.h.h.h.j.b.b.b.b.b.b.b.b.b.b.n.b.b.b.b.b.n.n.n.n.n.B.R.R.R.R.B.b.b.b.b.b.b.b.b.b.b.b.b.b.b.b.b.b.b.b.b.b.n.n.n.n.n.n.Z.%X",
"%X$                                                         [ R.R.[                                                         $ %X",
"  $ C Z Z Z Z G U U U U U U U G G G G U U U T T T Q Q T U 2   c.c.  2 C G G G G T T U U U G G U G U U U U U U U U U U U U U $   ",
"  w  X X X X X@X$X$X$X$X$X$X$X$X$X$X$X$X$X$X$X$X$X$X$X$X$X..  s.s.  {  X X X X X#X$X$X$X$X$X$X$X$X$X$X$X$X$X$X$X$X$X$X$X$X$Xt   ",
"  t  X X X X X@X$X$X$X$X$X$X$X$X$X$X$X$X$X$X$X$X$X$X$X$X$X..  s.s.  {  X X X X X#X$X$X$X$X$X$X$X$X$X$X$X$X$X$X$X$X$X$X$X$X$Xt   ",
"  t  X X X X X@X$X$X$X$X$X$X$X$X$X$X$X$X$X$X$X$X$X$X$X$X$X..  s.s.  {  X X X X X#X$X$X$X$X$X$X$X$X$X$X$X$X$X$X$X$X$X$X$X$X$Xt   ",
"  t  X X X X X@X$X$X$X$X$X$X$X$X$X$X$X$X$X$X$X$X$X$X$X$X$X..  s.s.  {  X X X X X#X$X$X$X$X$X$X$X$X$X$X$X$X$X$X$X$X$X$X$X$X$Xt   ",
"  t  X X X X X@X$X$X$X$X$X$X$X$X$X$X$X$X$X$X$X$X$X$X$X$X$X..  s.s.  {  X X X X X#X$X$X$X$X$X$X$X$X$X$X$X$X$X$X$X$X$X$X$X$X$Xt   ",
"  t  X X X X X@X$X$X$X$X$X$X$X$X$X$X$X$X$X$X$X$X$X$X$X$X$X..  s.s.  {  X X X X X#X$X$X$X$X$X$X$X$X$X$X$X$X$X$X$X$X$X$X$X$X$Xt   ",
"  t  X X X X X@X$X$X$X$X$X$X$X$X$X$X$X$X$X$X$X$X$X$X$X$X$X..  s.s.  {  X X X X X#X$X$X$X$X$X$X$X$X$X$X$X$X$X$X$X$X$X$X$X$X$Xt   ",
"  t  X X X X X@X$X$X$X$X$X$X$X$X$X$X$X$X$X$X$X$X$X$X$X$X$X..  s.s.  {  X X X X X#X$X$X$X$X$X$X$X$X$X$X$X$X$X$X$X$X$X$X$X$X$Xt   ",
"  t  X X X X X@X$X$X$X$X$X$X$X$X$X$X$X$X$X$X$X$X$X$X$X$X$X..  s.s.  {  X X X X X#X$X$X$X$X$X$X$X$X$X$X$X$X$X$X$X$X$X$X$X$X$Xt   ",
"  t  X X X X X@X$X$X$X$X$X$X$X$X$X$X$X$X$X$X$X$X$X$X$X$X$X..  s.s.  {  X X X X X#X$X$X$X$X$X$X$X$X$X$X$X$X$X$X$X$X$X$X$X$X$Xt   ",
"  w  X X X X X@X$X$X$X$X$X$X$X$X$X$X$X$X$X$X$X$X$X$X$X$X$X..  s.s.  {  X X X X X#X$X$X$X$X$X$X$X$X$X$X$X$X$X$X$X$X$X$X$X$X$Xt   ",
"    w t t v `.OXXXv t t t t t t w w w w w w w t t t h h t *   b.b.  $ 8 t t t t t t t w w w w w w w w w w w t t t t t t t t     ",
"%X          %X%X%X                                          %X%X%X%X                                                          %X"
};
